# Blender 5.2.0 LTS
# www.blender.org
o front_torso
v 0.028875 0.000000 -0.543151
v 0.050875 0.000000 -0.555799
v 0.042625 0.000000 -0.609903
v 0.060500 0.000000 -0.647846
v 0.103125 0.000000 -0.664007
v 0.140938 0.000000 -0.670331
v 0.168437 0.000000 -0.666115
v 0.176687 0.000000 -0.640820
v 0.195250 0.000000 -0.617632
v 0.210375 0.000000 -0.607092
v 0.212437 0.000000 -0.511532
v 0.202125 0.000000 -0.425808
v 0.047438 0.000000 -0.425808
v 0.038500 0.000000 -0.470075
s 0
f 1 2 3 4 5 6 7 8 9 10 11 12 13 14
o back_torso
v 0.544500 0.000000 -0.665413
v 0.618750 0.000000 -0.692113
v 0.697812 0.000000 -0.666115
v 0.759687 0.000000 -0.647144
v 0.746625 0.000000 -0.593742
v 0.738375 0.000000 -0.510829
v 0.725312 0.000000 -0.418781
v 0.563750 0.000000 -0.418781
v 0.551375 0.000000 -0.493263
v 0.539688 0.000000 -0.564231
s 0
f 15 16 17 18 19 20 21 22 23 24
o sleeve_left
v 0.035062 0.000000 -0.287385
v 0.053625 0.000000 -0.301438
v 0.076312 0.000000 -0.360461
v 0.103813 0.000000 -0.376622
v 0.127188 0.000000 -0.368893
v 0.149875 0.000000 -0.343597
v 0.171875 0.000000 -0.298628
v 0.158125 0.000000 -0.281061
v 0.145063 0.000000 -0.229065
v 0.130625 0.000000 -0.170745
v 0.095563 0.000000 -0.163016
v 0.076312 0.000000 -0.239605
v 0.056375 0.000000 -0.280359
s 0
f 25 26 27 28 29 30 31 32 33 34 35 36 37
o sleeve_right
v 0.513563 0.000000 -0.287385
v 0.532812 0.000000 -0.306357
v 0.556875 0.000000 -0.373109
v 0.584375 0.000000 -0.378027
v 0.609812 0.000000 -0.361164
v 0.632500 0.000000 -0.326031
v 0.641437 0.000000 -0.288088
v 0.625625 0.000000 -0.274035
v 0.614625 0.000000 -0.216417
v 0.601562 0.000000 -0.163718
v 0.561688 0.000000 -0.168637
v 0.546562 0.000000 -0.223444
v 0.531438 0.000000 -0.271224
s 0
f 38 39 40 41 42 43 44 45 46 47 48 49 50
o pants_front
v 0.976250 0.000000 -0.593039
v 1.038125 0.000000 -0.585310
v 1.068375 0.000000 -0.575473
v 1.065625 0.000000 -0.509424
v 1.053938 0.000000 -0.437753
v 1.031250 0.000000 -0.402620
v 1.003750 0.000000 -0.413863
v 0.976250 0.000000 -0.430726
v 0.962500 0.000000 -0.498181
s 0
f 51 52 53 54 55 56 57 58 59
o pants_back
v 1.194188 0.000000 -0.595147
v 1.271875 0.000000 -0.593742
v 1.333750 0.000000 -0.585310
v 1.340625 0.000000 -0.498884
v 1.325500 0.000000 -0.430024
v 1.292500 0.000000 -0.403323
v 1.260188 0.000000 -0.418079
v 1.234063 0.000000 -0.446887
v 1.218250 0.000000 -0.500992
s 0
f 60 61 62 63 64 65 66 67 68
o collar
v 0.928125 0.000000 -0.738489
v 0.955625 0.000000 -0.750434
v 1.071125 0.000000 -0.750434
v 1.100000 0.000000 -0.734273
v 1.091750 0.000000 -0.706869
v 1.038125 0.000000 -0.690005
v 0.983125 0.000000 -0.697032
v 0.938438 0.000000 -0.711788
s 0
f 69 70 71 72 73 74 75 76
o waist_tab_left
v 0.943250 0.000000 -0.661899
v 1.024375 0.000000 -0.661899
v 1.024375 0.000000 -0.640820
v 0.945312 0.000000 -0.640820
s 0
f 77 78 79 80
o waist_tab_right
v 1.188000 0.000000 -0.661899
v 1.278750 0.000000 -0.661899
v 1.280125 0.000000 -0.640820
v 1.188000 0.000000 -0.640820
s 0
f 81 82 83 84
o pocket_left
v 0.947375 0.000000 -0.373109
v 1.010625 0.000000 -0.373812
v 1.009250 0.000000 -0.281764
v 0.951500 0.000000 -0.278251
s 0
f 85 86 87 88
o pocket_right
v 1.271875 0.000000 -0.374514
v 1.332375 0.000000 -0.374514
v 1.333750 0.000000 -0.277548
v 1.273250 0.000000 -0.281764
s 0
f 89 90 91 92
o calf_pocket_left
v 0.952187 0.000000 -0.198148
v 1.020937 0.000000 -0.198148
v 1.015437 0.000000 -0.068860
v 0.955625 0.000000 -0.067455
s 0
f 93 94 95 96
o calf_pocket_right
v 1.271875 0.000000 -0.198148
v 1.333750 0.000000 -0.198148
v 1.334437 0.000000 -0.067455
v 1.277375 0.000000 -0.069563
s 0
f 97 98 99 100
o small_sleeve_panel
v 0.244750 0.000000 -0.371001
v 0.272938 0.000000 -0.367488
v 0.270875 0.000000 -0.231173
v 0.255062 0.000000 -0.231173
s 0
f 101 102 103 104
o small_zip_panel
v 0.295625 0.000000 -0.345003
v 0.350625 0.000000 -0.345003
v 0.379500 0.000000 -0.289493
v 0.356125 0.000000 -0.274035
v 0.295625 0.000000 -0.299330
s 0
f 105 106 107 108 109
o diamond_piece
v 0.409750 0.000000 -0.676655
v 0.453063 0.000000 -0.718814
v 0.494312 0.000000 -0.676655
v 0.452375 0.000000 -0.633793
s 0
f 110 111 112 113
o long_narrow_panel
v 0.446875 0.000000 -0.573365
v 0.464063 0.000000 -0.582500
v 0.507375 0.000000 -0.503100
v 0.488813 0.000000 -0.491155
s 0
f 114 115 116 117
o long_narrow_panel_2
v 0.763125 0.000000 -0.351327
v 0.780312 0.000000 -0.346408
v 0.769313 0.000000 -0.184798
v 0.752125 0.000000 -0.187608
s 0
f 118 119 120 121
